<svg width="50" height="50" viewBox="0 0 50 50" fill="none" xmlns="http://www.w3.org/2000/svg">
<path d="M34.0832 29.1665C34.2498 27.7915 34.3748 26.4165 34.3748 24.9998C34.3748 23.5832 34.2498 22.2082 34.0832 20.8332H41.1248C41.4582 22.1665 41.6665 23.5623 41.6665 24.9998C41.6665 26.4373 41.4582 27.8332 41.1248 29.1665M30.3957 40.7498C31.6457 38.4373 32.604 35.9373 33.2707 33.3332H39.4165C37.3981 36.8087 34.1959 39.4415 30.3957 40.7498ZM29.8748 29.1665H20.1248C19.9165 27.7915 19.7915 26.4165 19.7915 24.9998C19.7915 23.5832 19.9165 22.1873 20.1248 20.8332H29.8748C30.0623 22.1873 30.2082 23.5832 30.2082 24.9998C30.2082 26.4165 30.0623 27.7915 29.8748 29.1665ZM24.9998 41.5832C23.2707 39.0832 21.8748 36.3123 21.0207 33.3332H28.979C28.1248 36.3123 26.729 39.0832 24.9998 41.5832ZM16.6665 16.6665H10.5832C12.5803 13.1812 15.7804 10.5441 19.5832 9.24984C18.3332 11.5623 17.3957 14.0623 16.6665 16.6665ZM10.5832 33.3332H16.6665C17.3957 35.9373 18.3332 38.4373 19.5832 40.7498C15.7879 39.4421 12.5921 36.8086 10.5832 33.3332ZM8.87484 29.1665C8.5415 27.8332 8.33317 26.4373 8.33317 24.9998C8.33317 23.5623 8.5415 22.1665 8.87484 20.8332H15.9165C15.7498 22.2082 15.6248 23.5832 15.6248 24.9998C15.6248 26.4165 15.7498 27.7915 15.9165 29.1665M24.9998 8.39567C26.729 10.8957 28.1248 13.6873 28.979 16.6665H21.0207C21.8748 13.6873 23.2707 10.8957 24.9998 8.39567ZM39.4165 16.6665H33.2707C32.6176 14.0865 31.6522 11.5959 30.3957 9.24984C34.229 10.5623 37.4165 13.2082 39.4165 16.6665ZM24.9998 4.1665C13.479 4.1665 4.1665 13.5415 4.1665 24.9998C4.1665 30.5252 6.36144 35.8242 10.2684 39.7312C12.203 41.6658 14.4996 43.2004 17.0273 44.2473C19.5549 45.2943 22.264 45.8332 24.9998 45.8332C30.5252 45.8332 35.8242 43.6382 39.7312 39.7312C43.6382 35.8242 45.8332 30.5252 45.8332 24.9998C45.8332 22.264 45.2943 19.5549 44.2473 17.0273C43.2004 14.4996 41.6658 12.203 39.7312 10.2684C37.7967 8.33389 35.5 6.79932 32.9724 5.75235C30.4448 4.70537 27.7357 4.1665 24.9998 4.1665Z" fill="#812DFF"/>
</svg>
